<svg xmlns="http://www.w3.org/2000/svg" width="671" height="448" viewBox="0 0 671 448">
<title>: </title>
<rect x="0" y="0" width="671" height="448" fill="#FCFBF7"/>
<g id="pr-marks">
<g id="g-grid-v-0">
<desc>An outline</desc>
<path data-pr-id="g-grid-v-0" d="M 46 414 L 46 30" fill="none" stroke="#E4E8ED" stroke-width="1" stroke-linejoin="round" stroke-linecap="round" stroke-dasharray="6 4"/>
</g>
<g id="g-grid-v-1">
<desc>An outline</desc>
<path data-pr-id="g-grid-v-1" d="M 136 414 L 136 30" fill="none" stroke="#E4E8ED" stroke-width="1" stroke-linejoin="round" stroke-linecap="round" stroke-dasharray="6 4"/>
</g>
<g id="g-grid-v-2">
<desc>An outline</desc>
<path data-pr-id="g-grid-v-2" d="M 226 414 L 226 30" fill="none" stroke="#E4E8ED" stroke-width="1" stroke-linejoin="round" stroke-linecap="round" stroke-dasharray="6 4"/>
</g>
<g id="g-grid-v-3">
<desc>An outline</desc>
<path data-pr-id="g-grid-v-3" d="M 316 414 L 316 30" fill="none" stroke="#9AA3AE" stroke-width="2" stroke-linejoin="round" stroke-linecap="round"/>
</g>
<g id="g-grid-v-4">
<desc>An outline</desc>
<path data-pr-id="g-grid-v-4" d="M 406 414 L 406 30" fill="none" stroke="#E4E8ED" stroke-width="1" stroke-linejoin="round" stroke-linecap="round" stroke-dasharray="6 4"/>
</g>
<g id="g-grid-v-5">
<desc>An outline</desc>
<path data-pr-id="g-grid-v-5" d="M 496 414 L 496 30" fill="none" stroke="#E4E8ED" stroke-width="1" stroke-linejoin="round" stroke-linecap="round" stroke-dasharray="6 4"/>
</g>
<g id="g-grid-v-6">
<desc>An outline</desc>
<path data-pr-id="g-grid-v-6" d="M 586 414 L 586 30" fill="none" stroke="#E4E8ED" stroke-width="1" stroke-linejoin="round" stroke-linecap="round" stroke-dasharray="6 4"/>
</g>
<g id="g-grid-h-0">
<desc>An outline</desc>
<path data-pr-id="g-grid-h-0" d="M 46 414 L 631 414" fill="none" stroke="#E4E8ED" stroke-width="1" stroke-linejoin="round" stroke-linecap="round" stroke-dasharray="6 4"/>
</g>
<g id="g-grid-h-1">
<desc>An outline</desc>
<path data-pr-id="g-grid-h-1" d="M 46 390 L 631 390" fill="none" stroke="#E4E8ED" stroke-width="1" stroke-linejoin="round" stroke-linecap="round" stroke-dasharray="6 4"/>
</g>
<g id="g-grid-h-2">
<desc>An outline</desc>
<path data-pr-id="g-grid-h-2" d="M 46 366 L 631 366" fill="none" stroke="#E4E8ED" stroke-width="1" stroke-linejoin="round" stroke-linecap="round" stroke-dasharray="6 4"/>
</g>
<g id="g-grid-h-3">
<desc>An outline</desc>
<path data-pr-id="g-grid-h-3" d="M 46 342 L 631 342" fill="none" stroke="#E4E8ED" stroke-width="1" stroke-linejoin="round" stroke-linecap="round" stroke-dasharray="6 4"/>
</g>
<g id="g-grid-h-4">
<desc>An outline</desc>
<path data-pr-id="g-grid-h-4" d="M 46 318 L 631 318" fill="none" stroke="#E4E8ED" stroke-width="1" stroke-linejoin="round" stroke-linecap="round" stroke-dasharray="6 4"/>
</g>
<g id="g-grid-h-5">
<desc>An outline</desc>
<path data-pr-id="g-grid-h-5" d="M 46 294 L 631 294" fill="none" stroke="#E4E8ED" stroke-width="1" stroke-linejoin="round" stroke-linecap="round" stroke-dasharray="6 4"/>
</g>
<g id="g-grid-h-6">
<desc>An outline</desc>
<path data-pr-id="g-grid-h-6" d="M 46 270 L 631 270" fill="none" stroke="#9AA3AE" stroke-width="2" stroke-linejoin="round" stroke-linecap="round"/>
</g>
<g id="g-grid-h-7">
<desc>An outline</desc>
<path data-pr-id="g-grid-h-7" d="M 46 246 L 631 246" fill="none" stroke="#E4E8ED" stroke-width="1" stroke-linejoin="round" stroke-linecap="round" stroke-dasharray="6 4"/>
</g>
<g id="g-grid-h-8">
<desc>An outline</desc>
<path data-pr-id="g-grid-h-8" d="M 46 222 L 631 222" fill="none" stroke="#E4E8ED" stroke-width="1" stroke-linejoin="round" stroke-linecap="round" stroke-dasharray="6 4"/>
</g>
<g id="g-grid-h-9">
<desc>An outline</desc>
<path data-pr-id="g-grid-h-9" d="M 46 198 L 631 198" fill="none" stroke="#E4E8ED" stroke-width="1" stroke-linejoin="round" stroke-linecap="round" stroke-dasharray="6 4"/>
</g>
<g id="g-grid-h-10">
<desc>An outline</desc>
<path data-pr-id="g-grid-h-10" d="M 46 174 L 631 174" fill="none" stroke="#E4E8ED" stroke-width="1" stroke-linejoin="round" stroke-linecap="round" stroke-dasharray="6 4"/>
</g>
<g id="g-grid-h-11">
<desc>An outline</desc>
<path data-pr-id="g-grid-h-11" d="M 46 150 L 631 150" fill="none" stroke="#E4E8ED" stroke-width="1" stroke-linejoin="round" stroke-linecap="round" stroke-dasharray="6 4"/>
</g>
<g id="g-grid-h-12">
<desc>An outline</desc>
<path data-pr-id="g-grid-h-12" d="M 46 126 L 631 126" fill="none" stroke="#E4E8ED" stroke-width="1" stroke-linejoin="round" stroke-linecap="round" stroke-dasharray="6 4"/>
</g>
<g id="g-grid-h-13">
<desc>An outline</desc>
<path data-pr-id="g-grid-h-13" d="M 46 102 L 631 102" fill="none" stroke="#E4E8ED" stroke-width="1" stroke-linejoin="round" stroke-linecap="round" stroke-dasharray="6 4"/>
</g>
<g id="g-grid-h-14">
<desc>An outline</desc>
<path data-pr-id="g-grid-h-14" d="M 46 78 L 631 78" fill="none" stroke="#E4E8ED" stroke-width="1" stroke-linejoin="round" stroke-linecap="round" stroke-dasharray="6 4"/>
</g>
<g id="g-grid-h-15">
<desc>An outline</desc>
<path data-pr-id="g-grid-h-15" d="M 46 54 L 631 54" fill="none" stroke="#E4E8ED" stroke-width="1" stroke-linejoin="round" stroke-linecap="round" stroke-dasharray="6 4"/>
</g>
<g id="g-grid-h-16">
<desc>An outline</desc>
<path data-pr-id="g-grid-h-16" d="M 46 30 L 631 30" fill="none" stroke="#E4E8ED" stroke-width="1" stroke-linejoin="round" stroke-linecap="round" stroke-dasharray="6 4"/>
</g>
<g id="m1">
<desc>An outline</desc>
<path data-pr-id="m1" d="M 104.5 412.27 L 106.75 404.23 L 109 396.41 L 111.25 388.79 L 113.5 381.38 L 115.75 374.16 L 118 367.15 L 120.25 360.34 L 122.5 353.72 L 124.75 347.3 L 127 341.06 L 129.25 335.02 L 131.5 329.16 L 133.75 323.49 L 136 318 L 138.25 312.69 L 140.5 307.56 L 142.75 302.6 L 145 297.82 L 147.25 293.2 L 149.5 288.76 L 151.75 284.48 L 154 280.37 L 156.25 276.42 L 158.5 272.63 L 160.75 268.99 L 163 265.51 L 165.25 262.19 L 167.5 259.01 L 169.75 255.98 L 172 253.1 L 174.25 250.37 L 176.5 247.77 L 178.75 245.32 L 181 243 L 183.25 240.82 L 185.5 238.77 L 187.75 236.85 L 190 235.06 L 192.25 233.39 L 194.5 231.85 L 196.75 230.43 L 199 229.13 L 201.25 227.94 L 203.5 226.88 L 205.75 225.92 L 208 225.07 L 210.25 224.33 L 212.5 223.7 L 214.75 223.17 L 217 222.74 L 219.25 222.42 L 221.5 222.18 L 223.75 222.05 L 226 222 L 228.25 222.04 L 230.5 222.18 L 232.75 222.39 L 235 222.7 L 237.25 223.08 L 239.5 223.54 L 241.75 224.08 L 244 224.69 L 246.25 225.37 L 248.5 226.13 L 250.75 226.95 L 253 227.83 L 255.25 228.78 L 257.5 229.79 L 259.75 230.86 L 262 231.98 L 264.25 233.16 L 266.5 234.39 L 268.75 235.67 L 271 237 L 273.25 238.37 L 275.5 239.79 L 277.75 241.24 L 280 242.74 L 282.25 244.27 L 284.5 245.83 L 286.75 247.42 L 289 249.05 L 291.25 250.7 L 293.5 252.38 L 295.75 254.07 L 298 255.79 L 300.25 257.53 L 302.5 259.28 L 304.75 261.05 L 307 262.82 L 309.25 264.61 L 311.5 266.4 L 313.75 268.2 L 316 270 L 318.25 271.8 L 320.5 273.6 L 322.75 275.39 L 325 277.18 L 327.25 278.95 L 329.5 280.72 L 331.75 282.47 L 334 284.21 L 336.25 285.93 L 338.5 287.63 L 340.75 289.3 L 343 290.95 L 345.25 292.58 L 347.5 294.17 L 349.75 295.73 L 352 297.26 L 354.25 298.76 L 356.5 300.21 L 358.75 301.63 L 361 303 L 363.25 304.33 L 365.5 305.61 L 367.75 306.84 L 370 308.02 L 372.25 309.14 L 374.5 310.21 L 376.75 311.22 L 379 312.17 L 381.25 313.05 L 383.5 313.88 L 385.75 314.63 L 388 315.31 L 390.25 315.92 L 392.5 316.46 L 394.75 316.92 L 397 317.3 L 399.25 317.61 L 401.5 317.82 L 403.75 317.96 L 406 318 L 408.25 317.95 L 410.5 317.82 L 412.75 317.58 L 415 317.26 L 417.25 316.83 L 419.5 316.3 L 421.75 315.67 L 424 314.93 L 426.25 314.08 L 428.5 313.13 L 430.75 312.06 L 433 310.87 L 435.25 309.57 L 437.5 308.15 L 439.75 306.61 L 442 304.94 L 444.25 303.15 L 446.5 301.23 L 448.75 299.18 L 451 297 L 453.25 294.68 L 455.5 292.23 L 457.75 289.63 L 460 286.9 L 462.25 284.02 L 464.5 280.99 L 466.75 277.81 L 469 274.49 L 471.25 271.01 L 473.5 267.38 L 475.75 263.58 L 478 259.63 L 480.25 255.52 L 482.5 251.24 L 484.75 246.8 L 487 242.18 L 489.25 237.4 L 491.5 232.44 L 493.75 227.31 L 496 222 L 498.25 216.51 L 500.5 210.84 L 502.75 204.98 L 505 198.94 L 507.25 192.7 L 509.5 186.28 L 511.75 179.66 L 514 172.85 L 516.25 165.84 L 518.5 158.63 L 520.75 151.21 L 523 143.59 L 525.25 135.77 L 527.5 127.73 L 529.75 119.48 L 532 111.02 L 534.25 102.35 L 536.5 93.45 L 538.75 84.34 L 541 75 L 543.25 65.44 L 545.5 55.65 L 547.75 45.63 L 550 35.38" fill="none" stroke="#1D4E89" stroke-width="2.6" stroke-linejoin="round" stroke-linecap="round"/>
</g>
<g id="m2">
<desc>An outline</desc>
<path data-pr-id="m2" d="M 416.5 412.8 L 417.25 411 L 418 409.2 L 418.75 407.4 L 419.5 405.6 L 420.25 403.8 L 421 402 L 421.75 400.2 L 422.5 398.4 L 423.25 396.6 L 424 394.8 L 424.75 393 L 425.5 391.2 L 426.25 389.4 L 427 387.6 L 427.75 385.8 L 428.5 384 L 429.25 382.2 L 430 380.4 L 430.75 378.6 L 431.5 376.8 L 432.25 375 L 433 373.2 L 433.75 371.4 L 434.5 369.6 L 435.25 367.8 L 436 366 L 436.75 364.2 L 437.5 362.4 L 438.25 360.6 L 439 358.8 L 439.75 357 L 440.5 355.2 L 441.25 353.4 L 442 351.6 L 442.75 349.8 L 443.5 348 L 444.25 346.2 L 445 344.4 L 445.75 342.6 L 446.5 340.8 L 447.25 339 L 448 337.2 L 448.75 335.4 L 449.5 333.6 L 450.25 331.8 L 451 330 L 451.75 328.2 L 452.5 326.4 L 453.25 324.6 L 454 322.8 L 454.75 321 L 455.5 319.2 L 456.25 317.4 L 457 315.6 L 457.75 313.8 L 458.5 312 L 459.25 310.2 L 460 308.4 L 460.75 306.6 L 461.5 304.8 L 462.25 303 L 463 301.2 L 463.75 299.4 L 464.5 297.6 L 465.25 295.8 L 466 294 L 466.75 292.2 L 467.5 290.4 L 468.25 288.6 L 469 286.8 L 469.75 285 L 470.5 283.2 L 471.25 281.4 L 472 279.6 L 472.75 277.8 L 473.5 276 L 474.25 274.2 L 475 272.4 L 475.75 270.6 L 476.5 268.8 L 477.25 267 L 478 265.2 L 478.75 263.4 L 479.5 261.6 L 480.25 259.8 L 481 258 L 481.75 256.2 L 482.5 254.4 L 483.25 252.6 L 484 250.8 L 484.75 249 L 485.5 247.2 L 486.25 245.4 L 487 243.6 L 487.75 241.8 L 488.5 240 L 489.25 238.2 L 490 236.4 L 490.75 234.6 L 491.5 232.8 L 492.25 231 L 493 229.2 L 493.75 227.4 L 494.5 225.6 L 495.25 223.8 L 496 222 L 496.75 220.2 L 497.5 218.4 L 498.25 216.6 L 499 214.8 L 499.75 213 L 500.5 211.2 L 501.25 209.4 L 502 207.6 L 502.75 205.8 L 503.5 204 L 504.25 202.2 L 505 200.4 L 505.75 198.6 L 506.5 196.8 L 507.25 195 L 508 193.2 L 508.75 191.4 L 509.5 189.6 L 510.25 187.8 L 511 186 L 511.75 184.2 L 512.5 182.4 L 513.25 180.6 L 514 178.8 L 514.75 177 L 515.5 175.2 L 516.25 173.4 L 517 171.6 L 517.75 169.8 L 518.5 168 L 519.25 166.2 L 520 164.4 L 520.75 162.6 L 521.5 160.8 L 522.25 159 L 523 157.2 L 523.75 155.4 L 524.5 153.6 L 525.25 151.8 L 526 150 L 526.75 148.2 L 527.5 146.4 L 528.25 144.6 L 529 142.8 L 529.75 141 L 530.5 139.2 L 531.25 137.4 L 532 135.6 L 532.75 133.8 L 533.5 132 L 534.25 130.2 L 535 128.4 L 535.75 126.6 L 536.5 124.8 L 537.25 123 L 538 121.2 L 538.75 119.4 L 539.5 117.6 L 540.25 115.8 L 541 114 L 541.75 112.2 L 542.5 110.4 L 543.25 108.6 L 544 106.8 L 544.75 105 L 545.5 103.2 L 546.25 101.4 L 547 99.6 L 547.75 97.8 L 548.5 96 L 549.25 94.2 L 550 92.4 L 550.75 90.6 L 551.5 88.8 L 552.25 87 L 553 85.2 L 553.75 83.4 L 554.5 81.6 L 555.25 79.8 L 556 78 L 556.75 76.2 L 557.5 74.4 L 558.25 72.6 L 559 70.8 L 559.75 69 L 560.5 67.2 L 561.25 65.4 L 562 63.6 L 562.75 61.8 L 563.5 60 L 564.25 58.2 L 565 56.4 L 565.75 54.6 L 566.5 52.8 L 567.25 51 L 568 49.2 L 568.75 47.4 L 569.5 45.6 L 570.25 43.8 L 571 42 L 571.75 40.2 L 572.5 38.4 L 573.25 36.6 L 574 34.8 L 574.75 33 L 575.5 31.2" fill="none" stroke="#0F7360" stroke-width="2" stroke-linejoin="round" stroke-linecap="round"/>
</g>
<g id="m3">
<desc>A filled region</desc>
<path data-pr-id="m3" d="M 501 222 L 500.83 220.71 L 500.33 219.5 L 499.54 218.46 L 498.5 217.67 L 497.29 217.17 L 496 217 L 494.71 217.17 L 493.5 217.67 L 492.46 218.46 L 491.67 219.5 L 491.17 220.71 L 491 222 L 491.17 223.29 L 491.67 224.5 L 492.46 225.54 L 493.5 226.33 L 494.71 226.83 L 496 227 L 497.29 226.83 L 498.5 226.33 L 499.54 225.54 L 500.33 224.5 L 500.83 223.29 L 501 222 Z" fill="#181B21" stroke="none"/>
</g>
</g>
<g id="pr-boxes">
<g id="t7">
<title>0</title>
<rect data-pr-id="t7" x="301.5" y="273.5" width="9" height="19" rx="6" fill="rgba(0, 0, 0, 0)"/>
</g>
<g id="t8">
<title>−3</title>
<rect data-pr-id="t8" x="38.5" y="274.5" width="15" height="19" rx="6" fill="rgba(0, 0, 0, 0)"/>
</g>
<g id="t9">
<title>−2</title>
<rect data-pr-id="t9" x="128.5" y="274.5" width="15" height="19" rx="6" fill="rgba(0, 0, 0, 0)"/>
</g>
<g id="t10">
<title>−1</title>
<rect data-pr-id="t10" x="218.5" y="274.5" width="15" height="19" rx="6" fill="rgba(0, 0, 0, 0)"/>
</g>
<g id="t11">
<title>1</title>
<rect data-pr-id="t11" x="401.5" y="274.5" width="9" height="19" rx="6" fill="rgba(0, 0, 0, 0)"/>
</g>
<g id="t12">
<title>2</title>
<rect data-pr-id="t12" x="491.5" y="274.5" width="9" height="19" rx="6" fill="rgba(0, 0, 0, 0)"/>
</g>
<g id="t13">
<title>3</title>
<rect data-pr-id="t13" x="581.5" y="274.5" width="9" height="19" rx="6" fill="rgba(0, 0, 0, 0)"/>
</g>
<g id="t14">
<title>−6</title>
<rect data-pr-id="t14" x="293" y="404.5" width="15" height="19" rx="6" fill="rgba(0, 0, 0, 0)"/>
</g>
<g id="t15">
<title>−4</title>
<rect data-pr-id="t15" x="293" y="356.5" width="15" height="19" rx="6" fill="rgba(0, 0, 0, 0)"/>
</g>
<g id="t16">
<title>−2</title>
<rect data-pr-id="t16" x="293" y="308.5" width="15" height="19" rx="6" fill="rgba(0, 0, 0, 0)"/>
</g>
<g id="t17">
<title>2</title>
<rect data-pr-id="t17" x="299" y="212.5" width="9" height="19" rx="6" fill="rgba(0, 0, 0, 0)"/>
</g>
<g id="t18">
<title>4</title>
<rect data-pr-id="t18" x="299" y="164.5" width="9" height="19" rx="6" fill="rgba(0, 0, 0, 0)"/>
</g>
<g id="t19">
<title>6</title>
<rect data-pr-id="t19" x="299" y="116.5" width="9" height="19" rx="6" fill="rgba(0, 0, 0, 0)"/>
</g>
<g id="t20">
<title>8</title>
<rect data-pr-id="t20" x="299" y="68.5" width="9" height="19" rx="6" fill="rgba(0, 0, 0, 0)"/>
</g>
<g id="t21">
<title>10</title>
<rect data-pr-id="t21" x="293" y="20.5" width="15" height="19" rx="6" fill="rgba(0, 0, 0, 0)"/>
</g>
<g id="t4">
<title>(2; 2)</title>
<rect data-pr-id="t4" x="509" y="210" width="58" height="24" rx="6" fill="rgba(0, 0, 0, 0)"/>
</g>
<g id="t5">
<title>y = 9x − 16</title>
<rect data-pr-id="t5" x="541.5" y="138" width="98" height="24" rx="6" fill="rgba(0, 0, 0, 0)"/>
</g>
<g id="t6">
<title>y = x³ − 3x</title>
<rect data-pr-id="t6" x="96" y="162" width="98" height="24" rx="6" fill="rgba(0, 0, 0, 0)"/>
</g>
<g id="t22">
<title>x</title>
<rect data-pr-id="t22" x="635.5" y="245.5" width="19" height="25" rx="6" fill="rgba(0, 0, 0, 0)"/>
</g>
<g id="t23">
<title>y</title>
<rect data-pr-id="t23" x="322.5" y="21.5" width="19" height="25" rx="6" fill="rgba(0, 0, 0, 0)"/>
</g>
</g>
<g id="pr-text">
<g id="t7--label">
<desc>Labels t7</desc>
<text data-pr-id="t7--label" x="306" y="287.03" font-family="&quot;Segoe UI&quot;, &quot;Noto Sans&quot;, system-ui, sans-serif" font-size="11" letter-spacing="0.1" fill="rgb(94, 103, 115)" text-anchor="middle" xml:space="preserve">0</text>
</g>
<g id="t8--label">
<desc>Labels t8</desc>
<text data-pr-id="t8--label" x="46" y="288.03" font-family="&quot;Segoe UI&quot;, &quot;Noto Sans&quot;, system-ui, sans-serif" font-size="11" letter-spacing="0.1" fill="rgb(94, 103, 115)" text-anchor="middle" xml:space="preserve">−3</text>
</g>
<g id="t9--label">
<desc>Labels t9</desc>
<text data-pr-id="t9--label" x="136" y="288.03" font-family="&quot;Segoe UI&quot;, &quot;Noto Sans&quot;, system-ui, sans-serif" font-size="11" letter-spacing="0.1" fill="rgb(94, 103, 115)" text-anchor="middle" xml:space="preserve">−2</text>
</g>
<g id="t10--label">
<desc>Labels t10</desc>
<text data-pr-id="t10--label" x="226" y="288.03" font-family="&quot;Segoe UI&quot;, &quot;Noto Sans&quot;, system-ui, sans-serif" font-size="11" letter-spacing="0.1" fill="rgb(94, 103, 115)" text-anchor="middle" xml:space="preserve">−1</text>
</g>
<g id="t11--label">
<desc>Labels t11</desc>
<text data-pr-id="t11--label" x="406" y="288.03" font-family="&quot;Segoe UI&quot;, &quot;Noto Sans&quot;, system-ui, sans-serif" font-size="11" letter-spacing="0.1" fill="rgb(94, 103, 115)" text-anchor="middle" xml:space="preserve">1</text>
</g>
<g id="t12--label">
<desc>Labels t12</desc>
<text data-pr-id="t12--label" x="496" y="288.03" font-family="&quot;Segoe UI&quot;, &quot;Noto Sans&quot;, system-ui, sans-serif" font-size="11" letter-spacing="0.1" fill="rgb(94, 103, 115)" text-anchor="middle" xml:space="preserve">2</text>
</g>
<g id="t13--label">
<desc>Labels t13</desc>
<text data-pr-id="t13--label" x="586" y="288.03" font-family="&quot;Segoe UI&quot;, &quot;Noto Sans&quot;, system-ui, sans-serif" font-size="11" letter-spacing="0.1" fill="rgb(94, 103, 115)" text-anchor="middle" xml:space="preserve">3</text>
</g>
<g id="t14--label">
<desc>Labels t14</desc>
<text data-pr-id="t14--label" x="300.5" y="418.03" font-family="&quot;Segoe UI&quot;, &quot;Noto Sans&quot;, system-ui, sans-serif" font-size="11" letter-spacing="0.1" fill="rgb(94, 103, 115)" text-anchor="middle" xml:space="preserve">−6</text>
</g>
<g id="t15--label">
<desc>Labels t15</desc>
<text data-pr-id="t15--label" x="300.5" y="370.03" font-family="&quot;Segoe UI&quot;, &quot;Noto Sans&quot;, system-ui, sans-serif" font-size="11" letter-spacing="0.1" fill="rgb(94, 103, 115)" text-anchor="middle" xml:space="preserve">−4</text>
</g>
<g id="t16--label">
<desc>Labels t16</desc>
<text data-pr-id="t16--label" x="300.5" y="322.03" font-family="&quot;Segoe UI&quot;, &quot;Noto Sans&quot;, system-ui, sans-serif" font-size="11" letter-spacing="0.1" fill="rgb(94, 103, 115)" text-anchor="middle" xml:space="preserve">−2</text>
</g>
<g id="t17--label">
<desc>Labels t17</desc>
<text data-pr-id="t17--label" x="303.5" y="226.03" font-family="&quot;Segoe UI&quot;, &quot;Noto Sans&quot;, system-ui, sans-serif" font-size="11" letter-spacing="0.1" fill="rgb(94, 103, 115)" text-anchor="middle" xml:space="preserve">2</text>
</g>
<g id="t18--label">
<desc>Labels t18</desc>
<text data-pr-id="t18--label" x="303.5" y="178.03" font-family="&quot;Segoe UI&quot;, &quot;Noto Sans&quot;, system-ui, sans-serif" font-size="11" letter-spacing="0.1" fill="rgb(94, 103, 115)" text-anchor="middle" xml:space="preserve">4</text>
</g>
<g id="t19--label">
<desc>Labels t19</desc>
<text data-pr-id="t19--label" x="303.5" y="130.03" font-family="&quot;Segoe UI&quot;, &quot;Noto Sans&quot;, system-ui, sans-serif" font-size="11" letter-spacing="0.1" fill="rgb(94, 103, 115)" text-anchor="middle" xml:space="preserve">6</text>
</g>
<g id="t20--label">
<desc>Labels t20</desc>
<text data-pr-id="t20--label" x="303.5" y="82.03" font-family="&quot;Segoe UI&quot;, &quot;Noto Sans&quot;, system-ui, sans-serif" font-size="11" letter-spacing="0.1" fill="rgb(94, 103, 115)" text-anchor="middle" xml:space="preserve">8</text>
</g>
<g id="t21--label">
<desc>Labels t21</desc>
<text data-pr-id="t21--label" x="300.5" y="34.03" font-family="&quot;Segoe UI&quot;, &quot;Noto Sans&quot;, system-ui, sans-serif" font-size="11" letter-spacing="0.1" fill="rgb(94, 103, 115)" text-anchor="middle" xml:space="preserve">10</text>
</g>
<g id="t4--label">
<desc>Labels t4</desc>
<text data-pr-id="t4--label" x="537.99" y="226.84" font-family="&quot;Segoe UI Semibold&quot;, &quot;Segoe UI&quot;, &quot;Noto Sans&quot;, system-ui, sans-serif" font-size="14" font-weight="600" letter-spacing="0.1" fill="rgb(24, 27, 33)" text-anchor="middle" xml:space="preserve">(2; 2)</text>
</g>
<g id="t5--label">
<desc>Labels t5</desc>
<text data-pr-id="t5--label" x="590.49" y="154.84" font-family="&quot;Segoe UI Semibold&quot;, &quot;Segoe UI&quot;, &quot;Noto Sans&quot;, system-ui, sans-serif" font-size="14" font-weight="600" letter-spacing="0.1" fill="rgb(15, 115, 96)" text-anchor="middle" xml:space="preserve">y = 9x − 16</text>
</g>
<g id="t6--label">
<desc>Labels t6</desc>
<text data-pr-id="t6--label" x="145" y="178.84" font-family="&quot;Segoe UI Semibold&quot;, &quot;Segoe UI&quot;, &quot;Noto Sans&quot;, system-ui, sans-serif" font-size="14" font-weight="600" letter-spacing="0.1" fill="rgb(29, 78, 137)" text-anchor="middle" xml:space="preserve">y = x³ − 3x</text>
</g>
<g id="t22--label">
<desc>Labels t22</desc>
<text data-pr-id="t22--label" x="644.99" y="263.13" font-family="&quot;Palatino Linotype&quot;, &quot;Book Antiqua&quot;, Georgia, &quot;Times New Roman&quot;, serif" font-size="15" font-weight="600" letter-spacing="0.1" fill="rgb(78, 87, 99)" text-anchor="middle" xml:space="preserve">x</text>
</g>
<g id="t23--label">
<desc>Labels t23</desc>
<text data-pr-id="t23--label" x="331.99" y="39.13" font-family="&quot;Palatino Linotype&quot;, &quot;Book Antiqua&quot;, Georgia, &quot;Times New Roman&quot;, serif" font-size="15" font-weight="600" letter-spacing="0.1" fill="rgb(78, 87, 99)" text-anchor="middle" xml:space="preserve">y</text>
</g>
</g>
</svg>